<svg width="14" height="16" viewBox="0 0 14 16" fill="none" xmlns="http://www.w3.org/2000/svg">
<path d="M3.16161 3.5V1.25C3.16161 1.05109 3.2393 0.860322 3.37758 0.71967C3.51586 0.579018 3.70341 0.5 3.89897 0.5H12.7473C12.9429 0.5 13.1304 0.579018 13.2687 0.71967C13.407 0.860322 13.4847 1.05109 13.4847 1.25V11.75C13.4847 11.9489 13.407 12.1397 13.2687 12.2803C13.1304 12.421 12.9429 12.5 12.7473 12.5H10.5352V14.75C10.5352 15.164 10.2034 15.5 9.79272 15.5H0.954683C0.857445 15.5006 0.761049 15.4816 0.671036 15.4442C0.581022 15.4068 0.499164 15.3517 0.430166 15.282C0.361167 15.2123 0.306388 15.1294 0.268975 15.0381C0.231562 14.9468 0.212254 14.8489 0.212158 14.75L0.21437 4.25C0.21437 3.836 0.546184 3.5 0.956895 3.5H3.16161ZM4.63634 3.5H10.5352V11H12.01V2H4.63634V3.5Z" fill="url(#paint0_linear_2752_772)"/>
<defs>
<linearGradient id="paint0_linear_2752_772" x1="1.09481" y1="6.59375" x2="11.8488" y2="7.38986" gradientUnits="userSpaceOnUse">
<stop stop-color="#68C9FF"/>
<stop offset="0.994746" stop-color="#D1B5FF"/>
</linearGradient>
</defs>
</svg>
