<svg width="19" height="17" viewBox="0 0 19 17" fill="none" xmlns="http://www.w3.org/2000/svg">
<path d="M3.45151 3.55459C4.07575 3.50033 4.86525 3.50033 5.92597 3.50033H7.40745C9.48172 3.50033 10.5189 3.50033 11.3111 3.9061C12.008 4.26303 12.5746 4.83256 12.9297 5.53307C13.3334 6.32945 13.3334 7.37196 13.3334 9.45699V11.4665C13.3334 11.6747 13.3334 11.7788 13.3292 11.8668C13.2645 13.2419 12.4614 14.4198 11.3087 15.0098L12.4513 15.8248C13.1971 16.3568 14.1772 15.5885 13.8368 14.7387C13.5957 14.1367 14.0396 13.4819 14.6889 13.4819H15.1903C16.9262 13.4819 18.3334 12.0766 18.3334 10.3432V6.82444C18.3334 4.49411 18.3334 3.32895 17.8792 2.43888C17.4798 1.65596 16.8423 1.01942 16.0583 0.620503C15.167 0.166992 14.0003 0.166992 11.6667 0.166992H10C7.66649 0.166992 6.49971 0.166992 5.60841 0.620503C4.8244 1.01942 4.18699 1.65596 3.78751 2.43888C3.62328 2.76077 3.51843 3.11864 3.45151 3.55459Z" fill="#525960"/>
<path fill-rule="evenodd" clip-rule="evenodd" d="M12.1468 6.12726C12.5 6.82994 12.5 7.74981 12.5 9.58953V11.3626C12.5 11.5463 12.5 11.6382 12.4964 11.7158C12.4174 13.4079 11.0819 14.7616 9.41255 14.8417C9.33597 14.8454 9.23487 14.8454 9.03268 14.8454L8.9808 14.8455C8.31953 14.8498 7.67538 15.059 7.13483 15.4451L7.10046 15.4699L5.40831 16.6951C4.82823 17.1151 4.06597 16.5085 4.33072 15.8376C4.51826 15.3624 4.17296 14.8454 3.66799 14.8454H3.27797C1.92786 14.8454 0.833374 13.736 0.833374 12.3675V9.58953C0.833374 7.74981 0.833374 6.82994 1.18659 6.12726C1.49729 5.50916 1.99306 5.00663 2.60285 4.69169C3.29608 4.33366 4.20357 4.33366 6.01856 4.33366H7.31486C9.12984 4.33366 10.0373 4.33366 10.7306 4.69169C11.3404 5.00663 11.8361 5.50916 12.1468 6.12726ZM4.16671 11.0003C4.62694 11.0003 5.00004 10.6272 5.00004 10.167C5.00004 9.70676 4.62694 9.33366 4.16671 9.33366C3.70647 9.33366 3.33337 9.70676 3.33337 10.167C3.33337 10.6272 3.70647 11.0003 4.16671 11.0003ZM7.50004 10.167C7.50004 10.6272 7.12694 11.0003 6.66671 11.0003C6.20647 11.0003 5.83337 10.6272 5.83337 10.167C5.83337 9.70676 6.20647 9.33366 6.66671 9.33366C7.12694 9.33366 7.50004 9.70676 7.50004 10.167ZM9.16671 11.0003C9.62694 11.0003 10 10.6272 10 10.167C10 9.70676 9.62694 9.33366 9.16671 9.33366C8.70647 9.33366 8.33337 9.70676 8.33337 10.167C8.33337 10.6272 8.70647 11.0003 9.16671 11.0003Z" fill="#525960"/>
</svg>
