<svg width="18" height="19" viewBox="0 0 18 19" fill="none" xmlns="http://www.w3.org/2000/svg">
<path fill-rule="evenodd" clip-rule="evenodd" d="M9 0.541992C6.97487 0.541992 5.30494 2.06278 5.06996 4.02462C4.74187 4.08746 4.43961 4.17829 4.14968 4.31121C3.31181 4.6953 2.60251 5.3129 2.1068 6.08996C1.80677 6.56028 1.62874 7.08641 1.48888 7.72822C1.35186 8.35703 1.24298 9.14098 1.10446 10.1383L1.09679 10.1936C0.918536 11.477 0.779187 12.4803 0.736863 13.2884C0.69389 14.1089 0.745875 14.7927 0.992709 15.4204C1.39614 16.4464 2.14105 17.302 3.10181 17.8427C3.68964 18.1735 4.35975 18.3191 5.17838 18.3894C5.98465 18.4587 6.99757 18.4587 8.29328 18.4587H9.70672C11.0024 18.4587 12.0153 18.4587 12.8216 18.3894C13.6403 18.3191 14.3104 18.1735 14.8982 17.8427C15.8589 17.302 16.6039 16.4464 17.0073 15.4204C17.2541 14.7927 17.3061 14.1089 17.2631 13.2884C17.2208 12.4802 17.0815 11.4769 16.9032 10.1935L16.8955 10.1383C16.757 9.14096 16.6481 8.35703 16.5111 7.72822C16.3713 7.08641 16.1932 6.56028 15.8932 6.08996C15.3975 5.3129 14.6882 4.6953 13.8503 4.31121C13.5604 4.17829 13.2581 4.08746 12.93 4.02462C12.6951 2.06278 11.0251 0.541992 9 0.541992ZM8.2855 3.87533C7.53377 3.87532 6.90101 3.87532 6.35924 3.89644C6.63367 2.69136 7.71181 1.79199 9 1.79199C10.2882 1.79199 11.3663 2.69136 11.6408 3.89644C11.099 3.87532 10.4662 3.87532 9.71449 3.87533H8.2855ZM5.66671 6.37533C5.32153 6.37533 5.04171 6.65515 5.04171 7.00033C5.04171 7.3455 5.32153 7.62533 5.66671 7.62533H12.3334C12.6786 7.62533 12.9584 7.3455 12.9584 7.00033C12.9584 6.65515 12.6786 6.37533 12.3334 6.37533H5.66671Z" fill="#525960"/>
</svg>
