<svg width="36" height="37" viewBox="0 0 36 37" fill="none" xmlns="http://www.w3.org/2000/svg">
<g filter="url(#filter0_d_55_1764)">
<path d="M26.3334 12V8.66666C26.3334 4 22.6667 0.333328 18.0001 0.333328C13.3334 0.333328 9.66675 4 9.66675 8.66666V12C6.83341 12 4.66675 14.1667 4.66675 17V28.6667C4.66675 31.5 6.83341 33.6667 9.66675 33.6667H26.3334C29.1667 33.6667 31.3334 31.5 31.3334 28.6667V17C31.3334 14.1667 29.1667 12 26.3334 12ZM13.0001 8.66666C13.0001 5.83333 15.1667 3.66666 18.0001 3.66666C20.8334 3.66666 23.0001 5.83333 23.0001 8.66666V12H13.0001V8.66666ZM19.8334 22.8333L19.6667 23V25.3333C19.6667 26.3333 19.0001 27 18.0001 27C17.0001 27 16.3334 26.3333 16.3334 25.3333V23C15.3334 22 15.1667 20.5 16.1667 19.5C17.1667 18.5 18.6667 18.3333 19.6667 19.3333C20.6667 20.1667 20.8334 21.8333 19.8334 22.8333Z" fill="#C8D2DC"/>
</g>
<defs>
<filter id="filter0_d_55_1764" x="0.666748" y="0.333328" width="34.6667" height="41.3333" filterUnits="userSpaceOnUse" color-interpolation-filters="sRGB">
<feFlood flood-opacity="0" result="BackgroundImageFix"/>
<feColorMatrix in="SourceAlpha" type="matrix" values="0 0 0 0 0 0 0 0 0 0 0 0 0 0 0 0 0 0 127 0" result="hardAlpha"/>
<feOffset dy="4"/>
<feGaussianBlur stdDeviation="2"/>
<feComposite in2="hardAlpha" operator="out"/>
<feColorMatrix type="matrix" values="0 0 0 0 0 0 0 0 0 0 0 0 0 0 0 0 0 0 0.25 0"/>
<feBlend mode="normal" in2="BackgroundImageFix" result="effect1_dropShadow_55_1764"/>
<feBlend mode="normal" in="SourceGraphic" in2="effect1_dropShadow_55_1764" result="shape"/>
</filter>
</defs>
</svg>
