<svg width="24" height="24" viewBox="0 0 24 24" fill="none" xmlns="http://www.w3.org/2000/svg">
<path fill-rule="evenodd" clip-rule="evenodd" d="M6.55232 0.333801H17.4478C21.4157 0.333801 23.6557 2.5843 23.6673 6.55213V17.4488C23.6673 21.4155 21.4157 23.6671 17.4478 23.6671H6.55232C2.58448 23.6671 0.333984 21.4155 0.333984 17.4488V6.55213C0.333984 2.5843 2.58448 0.333801 6.55232 0.333801ZM12.0584 18.8371C12.5613 18.8371 12.9801 18.4638 13.0268 17.9621V6.07377C13.0734 5.71211 12.8996 5.34927 12.5846 5.15211C12.2568 4.95377 11.8601 4.95377 11.5463 5.15211C11.2301 5.34927 11.0563 5.71211 11.0901 6.07377V17.9621C11.1496 18.4638 11.5684 18.8371 12.0584 18.8371ZM17.4251 18.8371C17.9151 18.8371 18.3339 18.4638 18.3934 17.9621V14.1355C18.4272 13.761 18.2534 13.4121 17.9372 13.2138C17.6234 13.0155 17.2267 13.0155 16.9001 13.2138C16.5839 13.4121 16.4101 13.761 16.4567 14.1355V17.9621C16.5034 18.4638 16.9222 18.8371 17.4251 18.8371ZM7.59033 17.9622C7.54366 18.4638 7.12483 18.8372 6.622 18.8372C6.12033 18.8372 5.70033 18.4638 5.65483 17.9622V9.90049C5.61983 9.53766 5.79366 9.17716 6.10983 8.97883C6.42366 8.78049 6.8215 8.78049 7.1365 8.97883C7.45033 9.17716 7.6265 9.53766 7.59033 9.90049V17.9622Z" fill="url(#paint0_linear_120_3969)"/>
<defs>
<linearGradient id="paint0_linear_120_3969" x1="1.88571" y1="9.81297" x2="20.7628" y2="11.3923" gradientUnits="userSpaceOnUse">
<stop stop-color="#68C9FF"/>
<stop offset="0.994746" stop-color="#D1B5FF"/>
</linearGradient>
</defs>
</svg>
